<?xml version="1.0" standalone="no"?>
<!DOCTYPE svg PUBLIC "-//W3C//DTD SVG 20010904//EN"
 "http://www.w3.org/TR/2001/REC-SVG-20010904/DTD/svg10.dtd">
<svg version="1.0" xmlns="http://www.w3.org/2000/svg"
 width="1280.000000pt" height="1275.000000pt" viewBox="0 0 1280.000000 1275.000000"
 preserveAspectRatio="xMidYMid meet">
<metadata>
Created by potrace 1.15, written by Peter Selinger 2001-2017
</metadata>
<g transform="translate(0.000000,1275.000000) scale(0.100000,-0.100000)"
fill="currentColor " stroke="none">
<path d="M6795 12737 c-77 -5 -444 -10 -815 -11 -577 -2 -690 -4 -775 -19
-397 -66 -622 -203 -750 -457 -120 -239 -157 -653 -118 -1340 12 -216 17 -556
20 -1403 l5 -1119 -1634 2 c-1709 3 -1739 2 -1953 -41 -457 -92 -690 -334
-735 -764 -5 -49 -10 -171 -10 -270 0 -99 -7 -407 -16 -685 -22 -677 -15
-1061 26 -1527 18 -194 77 -337 190 -457 191 -203 463 -296 956 -328 182 -12
307 -9 1214 23 482 17 1281 23 1485 10 309 -19 458 -51 470 -103 3 -13 6 -723
8 -1578 3 -1365 5 -1568 20 -1665 78 -537 257 -799 633 -924 189 -64 164 -62
1354 -71 714 -5 1123 -5 1195 2 567 52 830 386 886 1127 12 157 5 618 -12 821
-6 63 -15 567 -20 1120 -6 553 -11 1039 -12 1081 -2 94 11 121 72 151 l46 23
1685 1 c1260 1 1708 4 1775 13 152 21 296 76 400 154 145 109 238 239 294 407
44 135 52 218 61 625 5 215 16 485 24 600 52 729 45 1131 -25 1454 -27 124
-86 292 -133 375 -98 176 -249 306 -422 367 -163 56 -40 52 -1929 58 -1595 6
-1743 7 -1777 23 -68 31 -74 51 -68 233 3 88 5 844 5 1680 0 1602 0 1593 -46
1772 -40 159 -143 321 -267 419 -241 191 -672 264 -1307 221z"/>
</g>
</svg>
